<?xml version="1.0" encoding="UTF-8" standalone="no"?>
<!-- Created with Inkscape (http://www.inkscape.org/) -->

<svg
   xmlns:dc="http://purl.org/dc/elements/1.1/"
   xmlns:cc="http://creativecommons.org/ns#"
   xmlns:rdf="http://www.w3.org/1999/02/22-rdf-syntax-ns#"
   xmlns:svg="http://www.w3.org/2000/svg"
   xmlns="http://www.w3.org/2000/svg"
   xmlns:sodipodi="http://sodipodi.sourceforge.net/DTD/sodipodi-0.dtd"
   xmlns:inkscape="http://www.inkscape.org/namespaces/inkscape"
   width="250"
   height="40"
   viewBox="0 0 250 40"
   id="svg6378"
   version="1.1"
   inkscape:version="0.91 r13725"
   inkscape:export-filename="/Users/Ben/Desktop/mouth_shapes.png"
   inkscape:export-xdpi="90"
   inkscape:export-ydpi="90"
   sodipodi:docname="mouth_shapes.svg">
  <defs
     id="defs6380">
    <inkscape:path-effect
       effect="skeletal"
       id="path-effect6048"
       is_visible="true"
       pattern="M 0,5 C 0,2.24 2.24,0 5,0 7.76,0 10,2.24 10,5 10,7.76 7.76,10 5,10 2.24,10 0,7.76 0,5 Z"
       copytype="single_stretched"
       prop_scale="1"
       scale_y_rel="false"
       spacing="0"
       normal_offset="0"
       tang_offset="0"
       prop_units="false"
       vertical_pattern="false"
       fuse_tolerance="0" />
    <inkscape:path-effect
       effect="skeletal"
       id="path-effect6044"
       is_visible="true"
       pattern="M 0,5 C 0,2.24 2.24,0 5,0 7.76,0 10,2.24 10,5 10,7.76 7.76,10 5,10 2.24,10 0,7.76 0,5 Z"
       copytype="single_stretched"
       prop_scale="1"
       scale_y_rel="false"
       spacing="0"
       normal_offset="0"
       tang_offset="0"
       prop_units="false"
       vertical_pattern="false"
       fuse_tolerance="0" />
    <inkscape:path-effect
       effect="skeletal"
       id="path-effect6040"
       is_visible="true"
       pattern="M 0,5 C 0,2.24 2.24,0 5,0 7.76,0 10,2.24 10,5 10,7.76 7.76,10 5,10 2.24,10 0,7.76 0,5 Z"
       copytype="single_stretched"
       prop_scale="1"
       scale_y_rel="false"
       spacing="0"
       normal_offset="0"
       tang_offset="0"
       prop_units="false"
       vertical_pattern="false"
       fuse_tolerance="0" />
    <inkscape:path-effect
       effect="skeletal"
       id="path-effect6036"
       is_visible="true"
       pattern="M 0,5 C 0,2.24 2.24,0 5,0 7.76,0 10,2.24 10,5 10,7.76 7.76,10 5,10 2.24,10 0,7.76 0,5 Z"
       copytype="single_stretched"
       prop_scale="1"
       scale_y_rel="false"
       spacing="0"
       normal_offset="0"
       tang_offset="0"
       prop_units="false"
       vertical_pattern="false"
       fuse_tolerance="0" />
    <inkscape:path-effect
       effect="skeletal"
       id="path-effect6032"
       is_visible="true"
       pattern="M 0,5 C 0,2.24 2.24,0 5,0 7.76,0 10,2.24 10,5 10,7.76 7.76,10 5,10 2.24,10 0,7.76 0,5 Z"
       copytype="single_stretched"
       prop_scale="1"
       scale_y_rel="false"
       spacing="0"
       normal_offset="0"
       tang_offset="0"
       prop_units="false"
       vertical_pattern="false"
       fuse_tolerance="0" />
    <inkscape:path-effect
       effect="skeletal"
       id="path-effect6325"
       is_visible="true"
       pattern="M 0,5 C 0,2.24 2.24,0 5,0 7.76,0 10,2.24 10,5 10,7.76 7.76,10 5,10 2.24,10 0,7.76 0,5 Z"
       copytype="single_stretched"
       prop_scale="1"
       scale_y_rel="false"
       spacing="0"
       normal_offset="0"
       tang_offset="0"
       prop_units="false"
       vertical_pattern="false"
       fuse_tolerance="0" />
    <inkscape:path-effect
       effect="skeletal"
       id="path-effect6247"
       is_visible="true"
       pattern="M 0,5 C 0,2.24 2.24,0 5,0 7.76,0 10,2.24 10,5 10,7.76 7.76,10 5,10 2.24,10 0,7.76 0,5 Z"
       copytype="single_stretched"
       prop_scale="1"
       scale_y_rel="false"
       spacing="0"
       normal_offset="0"
       tang_offset="0"
       prop_units="false"
       vertical_pattern="false"
       fuse_tolerance="0" />
    <inkscape:path-effect
       effect="skeletal"
       id="path-effect6251"
       is_visible="true"
       pattern="M 0,5 C 0,2.24 2.24,0 5,0 7.76,0 10,2.24 10,5 10,7.76 7.76,10 5,10 2.24,10 0,7.76 0,5 Z"
       copytype="single_stretched"
       prop_scale="1"
       scale_y_rel="false"
       spacing="0"
       normal_offset="0"
       tang_offset="0"
       prop_units="false"
       vertical_pattern="false"
       fuse_tolerance="0" />
    <inkscape:path-effect
       effect="skeletal"
       id="path-effect6255"
       is_visible="true"
       pattern="M 0,5 C 0,2.24 2.24,0 5,0 7.76,0 10,2.24 10,5 10,7.76 7.76,10 5,10 2.24,10 0,7.76 0,5 Z"
       copytype="single_stretched"
       prop_scale="1"
       scale_y_rel="false"
       spacing="0"
       normal_offset="0"
       tang_offset="0"
       prop_units="false"
       vertical_pattern="false"
       fuse_tolerance="0" />
    <inkscape:path-effect
       effect="skeletal"
       id="path-effect6259"
       is_visible="true"
       pattern="M 0,5 C 0,2.24 2.24,0 5,0 7.76,0 10,2.24 10,5 10,7.76 7.76,10 5,10 2.24,10 0,7.76 0,5 Z"
       copytype="single_stretched"
       prop_scale="1"
       scale_y_rel="false"
       spacing="0"
       normal_offset="0"
       tang_offset="0"
       prop_units="false"
       vertical_pattern="false"
       fuse_tolerance="0" />
    <inkscape:path-effect
       effect="skeletal"
       id="path-effect6263"
       is_visible="true"
       pattern="M 0,5 C 0,2.24 2.24,0 5,0 7.76,0 10,2.24 10,5 10,7.76 7.76,10 5,10 2.24,10 0,7.76 0,5 Z"
       copytype="single_stretched"
       prop_scale="1"
       scale_y_rel="false"
       spacing="0"
       normal_offset="0"
       tang_offset="0"
       prop_units="false"
       vertical_pattern="false"
       fuse_tolerance="0" />
    <inkscape:path-effect
       effect="skeletal"
       id="path-effect7080"
       is_visible="true"
       pattern="M 0,5 C 0,2.24 2.24,0 5,0 7.76,0 10,2.24 10,5 10,7.76 7.76,10 5,10 2.24,10 0,7.76 0,5 Z"
       copytype="single_stretched"
       prop_scale="1"
       scale_y_rel="false"
       spacing="0"
       normal_offset="0"
       tang_offset="0"
       prop_units="false"
       vertical_pattern="false"
       fuse_tolerance="0" />
  </defs>
  <sodipodi:namedview
     id="base"
     pagecolor="#ffffff"
     bordercolor="#666666"
     borderopacity="1.0"
     inkscape:pageopacity="0.0"
     inkscape:pageshadow="2"
     inkscape:zoom="5.6"
     inkscape:cx="126.04032"
     inkscape:cy="34.082341"
     inkscape:document-units="px"
     inkscape:current-layer="layer1"
     showgrid="true"
     units="px"
     inkscape:window-width="1920"
     inkscape:window-height="1031"
     inkscape:window-x="4"
     inkscape:window-y="7"
     inkscape:window-maximized="0">
    <inkscape:grid
       type="xygrid"
       id="grid7107" />
  </sodipodi:namedview>
  <metadata
     id="metadata6383">
    <rdf:RDF>
      <cc:Work
         rdf:about="">
        <dc:format>image/svg+xml</dc:format>
        <dc:type
           rdf:resource="http://purl.org/dc/dcmitype/StillImage" />
        <dc:title></dc:title>
      </cc:Work>
    </rdf:RDF>
  </metadata>
  <g
     inkscape:label="Layer 1"
     inkscape:groupmode="layer"
     id="layer1"
     transform="translate(0,-1012.3622)">
    <path
       style="display:inline;fill:#000000;fill-rule:evenodd;stroke:none;stroke-width:1px;stroke-linecap:butt;stroke-linejoin:miter;stroke-opacity:1"
       d="m 828.88737,202.43174 c -0.65259,-0.50649 2.46212,-6.77451 10.45852,-15.86382 7.9013,-8.98121 20.90296,-20.88838 39.3522,-30.13339 15.4765,-7.75184 34.44606,-13.40637 55.37497,-13.90784 1.99981,-0.0479 3.99037,-0.0478 5.96992,-5e-4 22.35386,0.52859 42.02543,7.16562 57.23736,16.71588 15.69266,9.88731 25.49076,22.27862 30.88876,31.27167 5.4963,9.15692 6.8455,15.11783 6.179,15.44019 -0.9463,0.4577 -3.8603,-4.71309 -10.2581,-12.5916 -6.3004,-7.7586 -16.4066,-18.48131 -31.19065,-26.77688 -14.36819,-8.09724 -32.51541,-13.62882 -53.08261,-14.07258 -1.82488,-0.0389 -3.66087,-0.037 -5.50669,0.006 -19.28755,0.45236 -37.01316,5.33544 -51.78051,11.97019 -17.58518,7.89636 -30.75824,18.22607 -39.43399,25.8272 -8.76857,7.68245 -13.33435,12.79336 -14.20818,12.11517 z"
       id="path6030"
       inkscape:path-effect="#path-effect6032"
       inkscape:original-d="m 828.88737,202.43174 c 58.68856,-75.61829 168.93784,-71.98834 205.46073,3.52219"
       inkscape:connector-curvature="0"
       transform="matrix(0.1644746,0,0,0.121186,-128.10571,1013.0598)"
       sodipodi:nodetypes="cc" />
    <path
       style="display:inline;fill:#000000;fill-rule:evenodd;stroke:none;stroke-width:1px;stroke-linecap:butt;stroke-linejoin:miter;stroke-opacity:1"
       d="m 841.80205,144.90273 c 0.72308,-1.36421 10.78836,3.19991 27.53721,8.89057 16.73004,5.68427 40.09465,12.36402 66.6676,13.44112 0.32119,0.0134 0.64279,0.0261 0.96478,0.0379 16.92999,0.62114 32.42213,-1.09754 46.05595,-4.01843 29.79401,-6.36944 47.84131,-17.37782 49.10101,-15.18982 0.5753,0.99922 -15.8475,15.22964 -47.02134,23.72372 -14.16486,3.8532 -30.58641,6.13709 -48.5028,5.4779 -0.34084,-0.0125 -0.68126,-0.0261 -1.02124,-0.0407 -28.19522,-1.24544 -52.31235,-9.32837 -68.85053,-16.88 -16.58227,-7.57176 -25.48267,-14.40074 -24.93064,-15.44223 z"
       id="path6034"
       inkscape:path-effect="#path-effect6036"
       inkscape:original-d="m 841.80205,144.90273 c 60.46608,32.04928 126.73972,39.76884 190.32655,3.16132"
       inkscape:connector-curvature="0"
       sodipodi:nodetypes="cc"
       transform="matrix(0.1644746,0,0,0.121186,-128.87813,1019.1778)" />
    <path
       style="display:inline;fill:#000000;fill-rule:evenodd;stroke:none;stroke-width:1px;stroke-linecap:butt;stroke-linejoin:miter;stroke-opacity:1"
       d="m 889.93857,189.51706 c 0.73213,-1.95977 9.21224,0.23704 21.50951,3.65287 5.71912,1.57933 12.80485,3.52254 19.76773,4.41913 0.77766,0.10111 1.56207,0.19081 2.35233,0.2681 6.37962,0.62388 12.24603,0.35442 17.56461,-0.59211 14.22819,-2.45095 23.0154,-8.69974 24.5123,-6.57392 0.70531,1.00164 -5.90783,10.6078 -22.44132,15.3911 -6.16375,1.75019 -13.16503,2.46746 -20.61458,1.73158 -0.92337,-0.0912 -1.83751,-0.20322 -2.74134,-0.33469 -8.14722,-1.19464 -15.47609,-3.78608 -21.24514,-6.28996 -12.02337,-5.19826 -19.19085,-10.26208 -18.6641,-11.6721 z"
       id="path6038"
       inkscape:path-effect="#path-effect6040"
       inkscape:original-d="m 889.93857,189.51706 c 26.81838,10.01879 52.86143,24.30193 85.70648,1.17407"
       inkscape:connector-curvature="0"
       sodipodi:nodetypes="cc"
       transform="matrix(0.1644746,0,0,0.121186,-128.87813,1019.1778)" />
    <path
       style="display:inline;fill:#000000;fill-rule:evenodd;stroke:none;stroke-width:1px;stroke-linecap:butt;stroke-linejoin:miter;stroke-opacity:1"
       d="m 888.76451,113.20307 c 0.49996,-1.36452 6.53581,-0.18665 16.06102,1.13803 9.9151,1.37889 22.26104,2.6693 37.15511,2.06188 0,0 0.11297,-0.005 0.11296,-0.005 14.55835,-0.58901 27.65054,-2.78853 37.30242,-4.38177 9.63038,-1.58968 15.75046,-2.52694 16.20808,-1.16173 0.41686,1.24363 -4.91632,4.58027 -14.41346,8.0069 -9.49118,3.42447 -23.09037,6.8643 -38.68202,7.52774 -0.0402,0.002 -0.0804,0.003 -0.12065,0.005 -15.81317,0.64444 -29.37187,-1.91253 -39.18759,-5.18365 -9.66281,-3.22017 -14.87921,-6.79796 -14.43587,-8.00794 z"
       id="path6042"
       inkscape:path-effect="#path-effect6044"
       inkscape:original-d="m 888.76451,113.20307 c 35.6132,13.04867 71.22639,9.58938 106.83959,-2.34812"
       inkscape:connector-curvature="0"
       sodipodi:nodetypes="cc"
       transform="matrix(0.1644746,0,0,0.121186,-128.87813,1019.1778)" />
    <path
       style="display:inline;fill:#000000;fill-rule:evenodd;stroke:none;stroke-width:1px;stroke-linecap:butt;stroke-linejoin:miter;stroke-opacity:1"
       d="m 898.157,167.2099 c -0.7646,-1.14331 5.28625,-9.24133 19.98977,-13.03873 6.47339,-1.64723 13.73803,-2.16194 21.58763,-1.39448 0.20333,0.0199 0.40614,0.0405 0.60844,0.0619 11.67023,1.23767 23.11429,4.88049 29.77092,7.24584 7.21937,2.56531 11.63452,4.6339 11.4016,5.95138 -0.24277,1.37321 -5.16972,1.74529 -12.96155,0.90722 6.38817,0.6871 -32.28796,-4.45476 -29.22429,-4.15681 -0.18241,-0.0178 -0.36508,-0.0352 -0.548,-0.0523 -7.11168,-0.66419 -13.23461,-0.65405 -18.93511,0.0875 -12.49515,1.56698 -20.46054,6.22599 -21.68941,4.38845 z"
       id="path6046"
       inkscape:path-effect="#path-effect6048"
       inkscape:original-d="m 898.157,167.2099 c 27.78612,-18.58215 55.57224,-6.08641 83.35836,-1.17406"
       inkscape:connector-curvature="0"
       sodipodi:nodetypes="cc"
       transform="matrix(0.1644746,0,0,0.121186,-128.87813,1019.1778)" />
    <path
       style="display:inline;opacity:1;fill:none;fill-opacity:1;fill-rule:nonzero;stroke:none;stroke-width:8.18500042;stroke-linecap:round;stroke-linejoin:miter;stroke-miterlimit:4;stroke-dasharray:none;stroke-dashoffset:6.15614176;stroke-opacity:1"
       d="M 50.5,15.961811 C 42.803842,13.6507 33.769245,13.535205 27.808045,15.671726 c -4.49729,1.611849 -5.015905,1.594581 -12.5,-0.416198 C 11.01362,14.101729 6.1552262,12.642579 4.5116137,12.012973 L 1.5232274,10.868233 4.0116137,8.9631679 C 5.3802262,7.9153821 9.1365324,5.642507 12.358961,3.9123344 l 5.858961,-3.14576831 5.141039,1.71075041 c 8.743233,2.9094293 20.765166,3.1220731 31.036126,0.5489667 6.380008,-1.5983358 9.470833,-1.951729 10.99057,-1.2566202 3.931409,1.7981778 12.817856,9.426908 11.963059,10.269903 -0.983425,0.969848 -18.015805,6.01825 -19.710583,5.842222 C 57.01216,17.816771 53.8,16.952782 50.5,15.961811 Z"
       id="path6107"
       inkscape:connector-curvature="0"
       transform="matrix(0.39677926,0,0,0.32829171,9.5743941,1032.9846)" />
    <path
       style="display:inline;opacity:1;fill:none;fill-opacity:1;fill-rule:nonzero;stroke:none;stroke-width:8.18500042;stroke-linecap:round;stroke-linejoin:miter;stroke-miterlimit:4;stroke-dasharray:none;stroke-dashoffset:6.15614176;stroke-opacity:1"
       d="M 50.5,15.961811 C 42.803842,13.6507 33.769245,13.535205 27.808045,15.671726 c -4.49729,1.611849 -5.015905,1.594581 -12.5,-0.416198 C 11.01362,14.101729 6.1552262,12.642579 4.5116137,12.012973 L 1.5232274,10.868233 4.0116137,8.9631679 C 5.3802262,7.9153821 9.1365324,5.642507 12.358961,3.9123344 l 5.858961,-3.14576831 5.141039,1.71075041 c 8.743233,2.9094293 20.765166,3.1220731 31.036126,0.5489667 6.380008,-1.5983358 9.470833,-1.951729 10.99057,-1.2566202 3.931409,1.7981778 12.817856,9.426908 11.963059,10.269903 -0.983425,0.969848 -18.015805,6.01825 -19.710583,5.842222 C 57.01216,17.816771 53.8,16.952782 50.5,15.961811 Z"
       id="path6109"
       inkscape:connector-curvature="0"
       transform="matrix(0.39677926,0,0,0.32829171,9.5743941,1032.9846)" />
    <path
       style="display:inline;opacity:1;fill:#000000;fill-opacity:1;fill-rule:nonzero;stroke:#000000;stroke-width:8.18500042;stroke-linecap:round;stroke-linejoin:miter;stroke-miterlimit:4;stroke-dasharray:none;stroke-dashoffset:6.15614176;stroke-opacity:1"
       d="M 50.5,15.961811 C 42.803842,13.6507 33.769245,13.535205 27.808045,15.671726 c -4.49729,1.611849 -5.015905,1.594581 -12.5,-0.416198 C 11.01362,14.101729 6.1552262,12.642579 4.5116137,12.012973 L 1.5232274,10.868233 4.0116137,8.9631679 C 5.3802262,7.9153821 9.1365324,5.642507 12.358961,3.9123344 l 5.858961,-3.14576831 5.141039,1.71075041 c 8.743233,2.9094293 20.765166,3.1220731 31.036126,0.5489667 6.380008,-1.5983358 9.470833,-1.951729 10.99057,-1.2566202 3.931409,1.7981778 12.817856,9.426908 11.963059,10.269903 -0.983425,0.969848 -18.015805,6.01825 -19.710583,5.842222 C 57.01216,17.816771 53.8,16.952782 50.5,15.961811 Z"
       id="path6113"
       inkscape:connector-curvature="0"
       transform="matrix(0.39677926,0,0,0.32829171,9.5743941,1032.9846)" />
    <path
       style="display:inline;opacity:1;fill:#ffffff;fill-opacity:1;fill-rule:nonzero;stroke:#483e37;stroke-width:2;stroke-linecap:round;stroke-linejoin:miter;stroke-miterlimit:4;stroke-dasharray:none;stroke-dashoffset:6.15614176;stroke-opacity:1"
       d="M 47,20.980465 C 36.273628,20.155478 14.655349,17.740543 5.5,16.344583 1.7017359,15.765444 1.6260849,15.686977 4,14.788751 5.375,14.268487 12.125,12.290848 19,10.393996 46.564482,2.7887985 74.122293,-0.15265777 99.25,1.8282988 c 16.8967,1.3320603 35.14445,4.7143645 48.48929,8.9877132 l 8.76071,2.805394 -20,2.710636 c -11,1.49085 -24.05,3.148585 -29,3.683856 C 94.21809,21.452144 60.18706,21.99471 47,20.980465 Z"
       id="path6167"
       inkscape:connector-curvature="0"
       transform="matrix(0.09919482,0,0,0.08207293,17.723104,1031.4785)" />
    <path
       style="display:inline;opacity:1;fill:#ffffff;fill-opacity:1;fill-rule:nonzero;stroke:#483e37;stroke-width:2;stroke-linecap:round;stroke-linejoin:miter;stroke-miterlimit:4;stroke-dasharray:none;stroke-dashoffset:6.15614176;stroke-opacity:1"
       d="M 31.5,7.3310421 C 19.082488,6.5649773 3.4228874,4.7627536 2.6412411,4.0097608 2.1689236,3.5547575 4.8689236,2.8039236 8.6412411,2.3412411 20.920565,0.83515645 39.844117,1.4453547 60.5,4.0134495 L 80.5,6.5 72,7.15075 C 63.455885,7.8048774 40.814411,7.9056694 31.5,7.3310421 Z"
       id="path6169"
       inkscape:connector-curvature="0"
       transform="matrix(0.09919482,0,0,0.08207293,21.294124,1038.783)" />
    <path
       transform="matrix(0.14953849,0,0,0.14875421,-111.49953,1014.8521)"
       style="display:inline;fill:#000000;fill-rule:evenodd;stroke:none;stroke-width:1px;stroke-linecap:butt;stroke-linejoin:miter;stroke-opacity:1"
       d="m 1203.413,201.25768 c 0.6983,-1.19536 4.5821,-0.1247 10.5449,1.72035 5.7309,1.77328 14.0996,4.5012 22.6974,4.93376 0,0 0,0 0,0 0.7242,0.0443 1.4555,0.0742 2.1934,0.0892 5.086,0.10368 9.8816,-0.50896 14.1876,-1.46753 11.7309,-2.58146 19.4505,-7.26671 20.8204,-5.27582 0.8427,1.22473 -4.7906,9.13685 -18.254,13.987 -4.9459,1.76767 -10.715,2.87479 -16.9543,2.75147 -0.9031,-0.0179 -1.799,-0.0612 -2.6867,-0.12925 0,0 0,0 0,0 -10.7302,-0.91828 -19.4954,-5.10098 -24.9619,-8.6724 -5.585,-3.64884 -8.2135,-6.8639 -7.5868,-7.93682 z"
       id="path6323"
       inkscape:path-effect="#path-effect6325"
       inkscape:original-d="m 1203.413,201.25768 c 21.0249,12.28165 43.2152,18.73613 70.4437,0"
       inkscape:connector-curvature="0"
       sodipodi:nodetypes="cc" />
    <path
       transform="matrix(0.14953849,0,0,0.14875421,-111.49953,1014.8521)"
       style="display:inline;fill:#000000;fill-rule:evenodd;stroke:#000000;stroke-width:1px;stroke-linecap:butt;stroke-linejoin:miter;stroke-opacity:1"
       d="m 1239.8089,76.807167 c 10.1752,-5.645744 20.3504,-5.29251 30.5256,4.696246 27.3949,14.828696 42.1472,64.224327 17.6109,85.706487 -24.8677,36.85173 -62.5652,36.6469 -83.3584,12.91467 -20.2508,-44.61824 -13.3349,-80.592516 35.2219,-103.317403 z"
       id="path6327"
       inkscape:connector-curvature="0"
       sodipodi:nodetypes="ccccc" />
    <g
       style="display:inline"
       id="g6241"
       transform="translate(-201.075,723.8085)">
      <path
         sodipodi:nodetypes="cc"
         inkscape:connector-curvature="0"
         id="path6218"
         d="m 482.53925,466.59556 c 51.6587,25.27086 103.31741,21.98727 154.97611,3.52219"
         style="fill:none;fill-rule:evenodd;stroke:#000000;stroke-width:7.32724667;stroke-linecap:butt;stroke-linejoin:miter;stroke-miterlimit:4;stroke-dasharray:none;stroke-opacity:1"
         transform="matrix(0.1656262,0,0,0.14626368,234.77958,243.19516)" />
      <path
         sodipodi:nodetypes="cc"
         inkscape:connector-curvature="0"
         id="path6220"
         d="m 527.15358,507.68771 c 21.70903,9.02336 46.83804,11.20674 81.01024,-4.69624"
         style="fill:none;fill-rule:evenodd;stroke:#000000;stroke-width:7.32724667;stroke-linecap:butt;stroke-linejoin:miter;stroke-miterlimit:4;stroke-dasharray:none;stroke-opacity:1"
         transform="matrix(0.1656262,0,0,0.14626368,234.77958,243.19516)" />
    </g>
    <g
       style="display:inline"
       id="g6312"
       transform="matrix(0.41297868,0,0,0.41230177,40.073527,903.41255)">
      <path
         sodipodi:nodetypes="cc"
         inkscape:connector-curvature="0"
         inkscape:original-d="m 855.89078,471.29181 c 78.27077,27.20315 156.54152,29.13809 234.81232,0"
         inkscape:path-effect="#path-effect6247"
         id="path6245"
         d="m 855.89078,471.29181 c 0.50417,-1.45063 13.41495,2.27024 34.50015,6.66626 21.359,4.4531 50.03919,9.27078 82.9369,9.4618 0,0 0.0604,3.8e-4 0.0604,3.8e-4 33.10657,0.20399 61.44417,-4.39125 82.93057,-9.00268 21.0323,-4.51396 33.8439,-8.57732 34.3843,-7.12576 0.4181,1.1231 -11.5494,7.57714 -32.6109,13.97087 -21.3526,6.48209 -50.6628,12.35556 -84.76381,12.15737 0,0 -0.0624,-3.7e-4 -0.0624,-3.7e-4 -33.91554,-0.22189 -63.38727,-6.29882 -84.60823,-12.60476 -21.0559,-6.25691 -33.1651,-12.37773 -32.76702,-13.52311 z"
         style="fill:#000000;fill-rule:evenodd;stroke:none;stroke-width:1px;stroke-linecap:butt;stroke-linejoin:miter;stroke-opacity:1"
         transform="matrix(0.35906329,0,0,0.36898001,-20.165668,150.2993)" />
      <path
         sodipodi:nodetypes="cc"
         inkscape:connector-curvature="0"
         inkscape:original-d="m 943.94539,507.68771 c 23.65537,14.74039 52.66289,13.42435 85.70651,0"
         inkscape:path-effect="#path-effect6251"
         id="path6249"
         d="m 943.94539,507.68771 c 0.73674,-1.18231 5.06249,0.44349 11.93707,2.21388 7.13662,1.83787 16.21861,3.5696 27.33838,3.3615 0,0 1e-5,0 1e-5,0 1.0207,-0.0171 2.04998,-0.0489 3.08904,-0.0955 11.49721,-0.51552 22.27711,-2.8012 29.96721,-4.35243 7.8086,-1.5751 12.8339,-2.45882 13.3748,-1.12746 0.4926,1.21242 -3.5855,4.45621 -11.1919,7.87159 -7.5493,3.38976 -18.74393,6.95271 -31.68337,7.58114 -1.15482,0.0561 -2.30214,0.0878 -3.44137,0.0955 0,0 -10e-6,0 -10e-6,0 -12.54316,0.0639 -22.91344,-3.22397 -29.96557,-7.00672 -6.97541,-3.7416 -10.06685,-7.51028 -9.42429,-8.54146 z"
         style="fill:#000000;fill-rule:evenodd;stroke:none;stroke-width:1px;stroke-linecap:butt;stroke-linejoin:miter;stroke-opacity:1"
         transform="matrix(0.35906329,0,0,0.36898001,-20.165668,150.2993)" />
      <path
         sodipodi:nodetypes="cc"
         inkscape:connector-curvature="0"
         inkscape:original-d="m 874.67577,473.63993 c 66.92151,-55.19514 136.65633,-60.16973 203.57783,0.38957"
         inkscape:path-effect="#path-effect6255"
         id="path6253"
         d="m 874.67577,473.63993 c -0.55753,-0.67598 3.40844,-5.41918 11.60966,-12.28436 7.99088,-6.68909 20.8213,-15.99174 37.28247,-23.51377 14.72507,-6.72785 32.86221,-12.05379 52.81292,-12.41427 0.13199,-0.002 0.26403,-0.004 0.39611,-0.006 19.76101,-0.25127 37.81527,4.50864 52.57417,11.15027 16.8198,7.58382 29.673,17.42808 37.5754,24.5043 8.1211,7.27197 11.9101,12.30883 11.3271,12.95311 -0.7054,0.77946 -5.7145,-2.90054 -14.555,-8.79458 -8.5145,-5.6768 -21.8007,-14.18838 -37.8039,-20.49029 -14.0767,-5.55445 -30.8992,-9.58329 -48.98296,-9.32434 -0.12111,0.002 -0.24217,0.004 -0.36318,0.006 -18.27205,0.2808 -35.31254,4.86719 -49.50349,10.53052 -15.78998,6.30185 -29.13585,14.34288 -37.70113,19.63095 -8.90352,5.49689 -14.01344,8.84623 -14.66817,8.05239 z"
         style="fill:#000000;fill-rule:evenodd;stroke:none;stroke-width:1px;stroke-linecap:butt;stroke-linejoin:miter;stroke-opacity:1"
         transform="matrix(0.35906329,0,0,0.36898001,-20.165668,150.2993)" />
      <path
         sodipodi:nodetypes="cc"
         inkscape:connector-curvature="0"
         inkscape:original-d="m 920.46416,441.94563 c 33.26508,20.68109 76.37671,20.00797 109.64174,-3.13261"
         inkscape:path-effect="#path-effect6259"
         id="path6257"
         d="m 920.46416,441.94563 c 0.78515,-1.26289 6.67641,1.42828 16.33418,4.35191 9.87496,2.98939 22.95706,5.91461 38.36218,5.51662 0.14507,-0.004 0.29026,-0.008 0.43558,-0.0118 15.48703,-0.45204 28.5135,-4.15415 38.2861,-7.71062 9.5711,-3.48313 15.3704,-6.5053 16.2237,-5.27869 0.7042,1.01235 -3.6833,6.20372 -13.2252,11.6806 -9.6138,5.51814 -23.81884,10.78752 -40.98819,11.30389 -0.16111,0.005 -0.32208,0.009 -0.48293,0.0132 -17.06775,0.41105 -31.42245,-4.02535 -41.24744,-8.98342 -9.74512,-4.91776 -14.34588,-9.83956 -13.69798,-10.8817 z"
         style="fill:#000000;fill-rule:evenodd;stroke:none;stroke-width:1px;stroke-linecap:butt;stroke-linejoin:miter;stroke-opacity:1"
         transform="matrix(0.35906329,0,0,0.36898001,-20.165668,150.2993)" />
      <path
         sodipodi:nodetypes="cc"
         inkscape:connector-curvature="0"
         inkscape:original-d="m 926.33447,486.55461 c 30.86202,-32.58544 66.22281,-24.68201 103.31743,-1.17406"
         inkscape:path-effect="#path-effect6263"
         id="path6261"
         d="m 926.33447,486.55461 c -0.61379,-0.58133 4.45076,-12.75252 22.2405,-21.28078 7.64801,-3.62213 17.0352,-5.8197 27.32326,-5.33404 0.47937,0.0237 0.95922,0.0526 1.43952,0.0867 10.04194,0.71278 19.11398,3.60657 26.48715,6.89561 17.5871,7.81942 26.599,17.24023 25.827,18.45846 -1.2839,2.02591 -12.1677,-4.45322 -29.0783,-10.17414 -7.05562,-2.37564 -15.34599,-4.6382 -23.92382,-5.21046 -0.41318,-0.0276 -0.8252,-0.0511 -1.23609,-0.0706 -8.69987,-0.43572 -16.67196,0.98312 -23.42606,3.43759 -15.84927,5.66776 -23.65543,15.08376 -25.65316,13.19169 z"
         style="fill:#000000;fill-rule:evenodd;stroke:none;stroke-width:1px;stroke-linecap:butt;stroke-linejoin:miter;stroke-opacity:1"
         transform="matrix(0.35906329,0,0,0.36898001,-20.165668,150.2993)" />
      <path
         transform="matrix(0.50507627,0,0,0.50507627,293.8727,315.04071)"
         inkscape:connector-curvature="0"
         id="path6308"
         d="M 31.5,26.34597 C 30.4,26.113855 23.3125,24.741687 15.75,23.296707 8.1875,21.851727 2.0129042,20.40634 2.0286761,20.084736 2.0643904,19.356484 22.679731,7.0642634 29.643446,3.6189958 l 5.143446,-2.5446975 6.856554,3.5096309 c 3.771105,1.930297 9.104593,4.0799854 11.852196,4.7770852 l 4.995642,1.2674546 -5.804607,2.657437 c -3.511875,1.607789 -7.936489,4.841043 -11.201983,8.185765 -2.968556,3.040581 -5.979522,5.476128 -6.691035,5.412328 C 34.082147,26.820198 32.6,26.578085 31.5,26.34597 Z"
         style="opacity:1;fill:#000000;fill-opacity:1;fill-rule:nonzero;stroke:#1a1a1a;stroke-width:1.73699999;stroke-linecap:round;stroke-linejoin:miter;stroke-miterlimit:4;stroke-dasharray:none;stroke-dashoffset:6.15614176;stroke-opacity:1" />
      <path
         transform="matrix(0.50507627,0,0,0.50507627,334.2788,314.03056)"
         inkscape:connector-curvature="0"
         id="path6310"
         d="M 25,24.347362 C 20.034629,20.430514 11.661198,15.975808 5.5202667,13.98405 L 1.5405333,12.693258 7.5202667,11.0279 C 13.637524,9.3242418 20.469537,6.1685194 25.101396,2.9071366 c 2.58442,-1.8197412 2.651335,-1.8061549 10.254269,2.082025 4.209081,2.1525456 11.981271,6.7176754 17.271533,10.1447324 8.276583,5.361608 9.326657,6.339032 7.525873,7.005185 -3.362438,1.243847 -25.972339,5.865816 -28.418989,5.809476 C 30.505337,27.920261 27.475,26.299724 25,24.347362 Z"
         style="opacity:1;fill:#000000;fill-opacity:1;fill-rule:nonzero;stroke:#000000;stroke-width:1.73699999;stroke-linecap:round;stroke-linejoin:miter;stroke-miterlimit:4;stroke-dasharray:none;stroke-dashoffset:6.15614176;stroke-opacity:1" />
    </g>
    <g
       id="g7103"
       transform="matrix(0.71829215,0,0,0.71829215,-353.54139,300.86838)">
      <path
         sodipodi:nodetypes="ccc"
         inkscape:connector-curvature="0"
         id="path7076"
         d="m 1453.4881,173.0802 c 55.5722,-15.48953 111.1445,-16.58855 166.7167,-7.04436 -62.5557,-94.207235 -84.582,-82.134818 -166.7167,7.04436 z"
         style="fill:#000000;fill-rule:evenodd;stroke:#000000;stroke-width:1px;stroke-linecap:butt;stroke-linejoin:miter;stroke-opacity:1"
         transform="matrix(0.28289678,0,0,0.28289678,376.01609,984.54861)" />
      <path
         sodipodi:nodetypes="cc"
         inkscape:connector-curvature="0"
         inkscape:original-d="m 1503.9727,194.21331 c 15.52,-13.57423 32.0438,-25.14094 59.8771,-14.08874"
         inkscape:path-effect="#path-effect7080"
         id="path7078"
         d="m 1503.9727,194.21331 c -0.822,-0.93984 0.7747,-4.16872 4.6696,-8.35321 3.7836,-4.06485 10.2635,-9.49412 19.0645,-12.65198 0,0 0,0 0,0 0.8866,-0.30738 1.7919,-0.58658 2.7143,-0.83553 5.1614,-1.3931 10.2005,-1.66557 14.7194,-1.18327 12.8971,1.42716 19.2682,7.52782 18.7093,8.93525 -0.896,2.2565 -8.6177,-0.16587 -19.1217,0.19494 -3.671,0.11185 -7.6358,0.60608 -11.7,1.7049 -0.7281,0.19684 -1.444,0.40899 -2.1474,0.63553 0,0 0,0 0,0 -6.8178,2.0954 -13.5818,6.17102 -18.0167,8.58674 -4.7629,2.59441 -7.995,3.99135 -8.8913,2.96663 z"
         style="fill:#000000;fill-rule:evenodd;stroke:none;stroke-width:1px;stroke-linecap:butt;stroke-linejoin:miter;stroke-opacity:1"
         transform="matrix(0.28289678,0,0,0.28289678,376.01609,984.54861)" />
    </g>
  </g>
</svg>
